# xmcd
#
# Track frame offsets:
#  150
#  14489
#  27470
#  38459
#  48410
#  70363
#  81324
#  93364
#  106547
#  119326
#  126239
#  137861
#  152305
#  162465
#  174854
#  185334
#  192192
#  202386
#  210637
#  221876
#  232872
#  245602
#  255650
#  266325
#  281040
#
# Disc length: 4197 seconds
#
# Revision: 0
# Processed by: cddbd v1.5.1PL2 Copyright (c) Steve Scherf et al.
# Submitted via: Collectorz.com_Music_Collector 6.11
#
DISCID=66106319
DTITLE=Adrivalan Orchestra - Top Classics 2
DYEAR=1900
DGENRE=Instrumental
TTITLE0=Adrivalan's Fascinations Ouverture
TTITLE1=This Is My Song
TTITLE2=Violetta
TTITLE3=Singing In The Rain
TTITLE4=Waltz Medley
TTITLE5=Strangers In The Night
TTITLE6=Marina
TTITLE7=O Sole Mio
TTITLE8=Rote Rosen
TTITLE9=Ramona
TTITLE10=Wild Rover
TTITLE11=Hemelsblauw
TTITLE12=The Lion Sleeps Tonight
TTITLE13=Save Your Love
TTITLE14=Smoke Gets In Your Eyes
TTITLE15=Norman
TTITLE16=Santa Lucia
TTITLE17=Blue Moon
TTITLE18=J'attendrai
TTITLE19=Moon River
TTITLE20=Nel Blu Dipinto Di Blu (Volare)
TTITLE21=Winter Wonderland
TTITLE22=What A Wonderful World
TTITLE23=Quiereme Mucho
TTITLE24=Chacha Medley
EXTD=
EXTT0=
EXTT1=
EXTT2=
EXTT3=
EXTT4=
EXTT5=
EXTT6=
EXTT7=
EXTT8=
EXTT9=
EXTT10=
EXTT11=
EXTT12=
EXTT13=
EXTT14=
EXTT15=
EXTT16=
EXTT17=
EXTT18=
EXTT19=
EXTT20=
EXTT21=
EXTT22=
EXTT23=
EXTT24=
PLAYORDER=
